<?xml version="1.0" encoding="UTF-8" standalone="no"?>
<!-- Created with Inkscape (http://www.inkscape.org/) -->

<svg
   width="512"
   height="512"
   viewBox="0 0 135.46666 135.46667"
   version="1.1"
   id="svg5"
   sodipodi:docname="icon_settings.svg"
   inkscape:version="1.2.1 (9c6d41e410, 2022-07-14, custom)"
   inkscape:export-filename="../res/drawable-xxxhdpi/icon_rotate_color_action_large.png"
   inkscape:export-xdpi="36"
   inkscape:export-ydpi="36"
   xmlns:inkscape="http://www.inkscape.org/namespaces/inkscape"
   xmlns:sodipodi="http://sodipodi.sourceforge.net/DTD/sodipodi-0.dtd"
   xmlns="http://www.w3.org/2000/svg"
   xmlns:svg="http://www.w3.org/2000/svg">
  <sodipodi:namedview
     id="namedview7"
     pagecolor="#ffffff"
     bordercolor="#666666"
     borderopacity="1.0"
     inkscape:pageshadow="2"
     inkscape:pageopacity="0.0"
     inkscape:pagecheckerboard="0"
     inkscape:document-units="px"
     showgrid="false"
     units="px"
     width="512px"
     inkscape:zoom="0.5"
     inkscape:cx="55"
     inkscape:cy="470"
     inkscape:window-width="1920"
     inkscape:window-height="1011"
     inkscape:window-x="0"
     inkscape:window-y="0"
     inkscape:window-maximized="1"
     inkscape:current-layer="layer1"
     inkscape:lockguides="false"
     showguides="false"
     inkscape:showpageshadow="2"
     inkscape:deskcolor="#d1d1d1">
    <inkscape:grid
       type="xygrid"
       id="grid2352" />
  </sodipodi:namedview>
  <defs
     id="defs2" />
  <g
     inkscape:label="Layer 1"
     inkscape:groupmode="layer"
     id="layer1">
    <g
       id="g354"
       transform="matrix(0.81967242,0,0,0.81967242,12.214207,12.214207)">
      <g
         id="g1834"
         transform="translate(0.96405296,2.292663)">
        <ellipse
           style="fill:none;stroke:#ededed;stroke-width:19.4224;stroke-opacity:1"
           id="path345"
           cx="66.769325"
           cy="65.440681"
           rx="36.590923"
           ry="36.590904" />
        <a
           id="a1783"
           transform="translate(20.467208,19.138587)">
          <path
             style="fill:#ededed;fill-opacity:1;stroke:none;stroke-width:2.60618;stroke-dasharray:none"
             d="m 35.225831,3.4829351 c 0,0 2.943433,-21.7391521 11.076173,-21.7391851 8.13278,-3.4e-5 11.0764,21.7391851 11.0764,21.7391851 z"
             id="path1728"
             sodipodi:nodetypes="cacc" />
          <path
             style="fill:#ededed;fill-opacity:1;stroke:none;stroke-width:2.60618;stroke-dasharray:none"
             d="m 35.225831,89.121191 c 0,0 2.943433,21.739149 11.076173,21.739179 8.13278,4e-5 11.0764,-21.739179 11.0764,-21.739179 z"
             id="path1779"
             sodipodi:nodetypes="cacc" />
        </a>
        <a
           id="a1789"
           transform="rotate(30,20.822634,94.063683)">
          <path
             style="fill:#ededed;fill-opacity:1;stroke:none;stroke-width:2.60618;stroke-dasharray:none"
             d="m 35.225831,3.4829351 c 0,0 2.943433,-21.7391521 11.076173,-21.7391851 8.13278,-3.4e-5 11.0764,21.7391851 11.0764,21.7391851 z"
             id="path1785"
             sodipodi:nodetypes="cacc" />
          <path
             style="fill:#ededed;fill-opacity:1;stroke:none;stroke-width:2.60618;stroke-dasharray:none"
             d="m 35.225831,89.121191 c 0,0 2.943433,21.739149 11.076173,21.739179 8.13278,4e-5 11.0764,-21.739179 11.0764,-21.739179 z"
             id="path1787"
             sodipodi:nodetypes="cacc" />
        </a>
        <a
           id="a1795"
           transform="rotate(60,39.961182,73.596461)">
          <path
             style="fill:#ededed;fill-opacity:1;stroke:none;stroke-width:2.60618;stroke-dasharray:none"
             d="m 35.225831,3.4829351 c 0,0 2.943433,-21.7391521 11.076173,-21.7391851 8.13278,-3.4e-5 11.0764,21.7391851 11.0764,21.7391851 z"
             id="path1791"
             sodipodi:nodetypes="cacc" />
          <path
             style="fill:#ededed;fill-opacity:1;stroke:none;stroke-width:2.60618;stroke-dasharray:none"
             d="m 35.225831,89.121191 c 0,0 2.943433,21.739149 11.076173,21.739179 8.13278,4e-5 11.0764,-21.739179 11.0764,-21.739179 z"
             id="path1793"
             sodipodi:nodetypes="cacc" />
        </a>
        <a
           id="a1801"
           transform="rotate(90,46.966374,66.104943)">
          <path
             style="fill:#ededed;fill-opacity:1;stroke:none;stroke-width:2.60618;stroke-dasharray:none"
             d="m 35.225831,3.4829351 c 0,0 2.943433,-21.7391521 11.076173,-21.7391851 8.13278,-3.4e-5 11.0764,21.7391851 11.0764,21.7391851 z"
             id="path1797"
             sodipodi:nodetypes="cacc" />
          <path
             style="fill:#ededed;fill-opacity:1;stroke:none;stroke-width:2.60618;stroke-dasharray:none"
             d="m 35.225831,89.121191 c 0,0 2.943433,21.739149 11.076173,21.739179 8.13278,4e-5 11.0764,-21.739179 11.0764,-21.739179 z"
             id="path1799"
             sodipodi:nodetypes="cacc" />
        </a>
        <a
           id="a1807"
           transform="rotate(120,51.010843,61.779727)">
          <path
             style="fill:#ededed;fill-opacity:1;stroke:none;stroke-width:2.60618;stroke-dasharray:none"
             d="m 35.225831,3.4829351 c 0,0 2.943433,-21.7391521 11.076173,-21.7391851 8.13278,-3.4e-5 11.0764,21.7391851 11.0764,21.7391851 z"
             id="path1803"
             sodipodi:nodetypes="cacc" />
          <path
             style="fill:#ededed;fill-opacity:1;stroke:none;stroke-width:2.60618;stroke-dasharray:none"
             d="m 35.225831,89.121191 c 0,0 2.943433,21.739149 11.076173,21.739179 8.13278,4e-5 11.0764,-21.739179 11.0764,-21.739179 z"
             id="path1805"
             sodipodi:nodetypes="cacc" />
        </a>
        <a
           id="a1813"
           transform="rotate(150,53.971589,58.613431)">
          <path
             style="fill:#ededed;fill-opacity:1;stroke:none;stroke-width:2.60618;stroke-dasharray:none"
             d="m 35.225831,3.4829351 c 0,0 2.943433,-21.7391521 11.076173,-21.7391851 8.13278,-3.4e-5 11.0764,21.7391851 11.0764,21.7391851 z"
             id="path1809"
             sodipodi:nodetypes="cacc" />
          <path
             style="fill:#ededed;fill-opacity:1;stroke:none;stroke-width:2.60618;stroke-dasharray:none"
             d="m 35.225831,89.121191 c 0,0 2.943433,21.739149 11.076173,21.739179 8.13278,4e-5 11.0764,-21.739179 11.0764,-21.739179 z"
             id="path1811"
             sodipodi:nodetypes="cacc" />
        </a>
      </g>
      <g
         id="g2190"
         transform="matrix(0.93852492,0,0,0.93852492,5.0687211,6.3156546)">
        <ellipse
           style="fill:none;stroke:#cccccc;stroke-width:19.4224;stroke-opacity:1"
           id="ellipse2152"
           cx="66.769325"
           cy="65.440681"
           rx="36.590923"
           ry="36.590904" />
        <a
           id="a2158"
           transform="translate(20.467208,19.138587)">
          <path
             style="fill:#cccccc;fill-opacity:1;stroke:none;stroke-width:2.60618;stroke-dasharray:none"
             d="m 35.225831,3.4829351 c 0,0 2.943433,-21.7391521 11.076173,-21.7391851 8.13278,-3.4e-5 11.0764,21.7391851 11.0764,21.7391851 z"
             id="path2154"
             sodipodi:nodetypes="cacc" />
          <path
             style="fill:#cccccc;fill-opacity:1;stroke:none;stroke-width:2.60618;stroke-dasharray:none"
             d="m 35.225831,89.121191 c 0,0 2.943433,21.739149 11.076173,21.739179 8.13278,4e-5 11.0764,-21.739179 11.0764,-21.739179 z"
             id="path2156"
             sodipodi:nodetypes="cacc" />
        </a>
        <a
           id="a2164"
           transform="rotate(30,20.822634,94.063683)">
          <path
             style="fill:#cccccc;fill-opacity:1;stroke:none;stroke-width:2.60618;stroke-dasharray:none"
             d="m 35.225831,3.4829351 c 0,0 2.943433,-21.7391521 11.076173,-21.7391851 8.13278,-3.4e-5 11.0764,21.7391851 11.0764,21.7391851 z"
             id="path2160"
             sodipodi:nodetypes="cacc" />
          <path
             style="fill:#cccccc;fill-opacity:1;stroke:none;stroke-width:2.60618;stroke-dasharray:none"
             d="m 35.225831,89.121191 c 0,0 2.943433,21.739149 11.076173,21.739179 8.13278,4e-5 11.0764,-21.739179 11.0764,-21.739179 z"
             id="path2162"
             sodipodi:nodetypes="cacc" />
        </a>
        <a
           id="a2170"
           transform="rotate(60,39.961182,73.596461)">
          <path
             style="fill:#cccccc;fill-opacity:1;stroke:none;stroke-width:2.60618;stroke-dasharray:none"
             d="m 35.225831,3.4829351 c 0,0 2.943433,-21.7391521 11.076173,-21.7391851 8.13278,-3.4e-5 11.0764,21.7391851 11.0764,21.7391851 z"
             id="path2166"
             sodipodi:nodetypes="cacc" />
          <path
             style="fill:#cccccc;fill-opacity:1;stroke:none;stroke-width:2.60618;stroke-dasharray:none"
             d="m 35.225831,89.121191 c 0,0 2.943433,21.739149 11.076173,21.739179 8.13278,4e-5 11.0764,-21.739179 11.0764,-21.739179 z"
             id="path2168"
             sodipodi:nodetypes="cacc" />
        </a>
        <a
           id="a2176"
           transform="rotate(90,46.966374,66.104943)">
          <path
             style="fill:#cccccc;fill-opacity:1;stroke:none;stroke-width:2.60618;stroke-dasharray:none"
             d="m 35.225831,3.4829351 c 0,0 2.943433,-21.7391521 11.076173,-21.7391851 8.13278,-3.4e-5 11.0764,21.7391851 11.0764,21.7391851 z"
             id="path2172"
             sodipodi:nodetypes="cacc" />
          <path
             style="fill:#cccccc;fill-opacity:1;stroke:none;stroke-width:2.60618;stroke-dasharray:none"
             d="m 35.225831,89.121191 c 0,0 2.943433,21.739149 11.076173,21.739179 8.13278,4e-5 11.0764,-21.739179 11.0764,-21.739179 z"
             id="path2174"
             sodipodi:nodetypes="cacc" />
        </a>
        <a
           id="a2182"
           transform="rotate(120,51.010843,61.779727)">
          <path
             style="fill:#cccccc;fill-opacity:1;stroke:none;stroke-width:2.60618;stroke-dasharray:none"
             d="m 35.225831,3.4829351 c 0,0 2.943433,-21.7391521 11.076173,-21.7391851 8.13278,-3.4e-5 11.0764,21.7391851 11.0764,21.7391851 z"
             id="path2178"
             sodipodi:nodetypes="cacc" />
          <path
             style="fill:#cccccc;fill-opacity:1;stroke:none;stroke-width:2.60618;stroke-dasharray:none"
             d="m 35.225831,89.121191 c 0,0 2.943433,21.739149 11.076173,21.739179 8.13278,4e-5 11.0764,-21.739179 11.0764,-21.739179 z"
             id="path2180"
             sodipodi:nodetypes="cacc" />
        </a>
        <a
           id="a2188"
           transform="rotate(150,53.971589,58.613431)">
          <path
             style="fill:#cccccc;fill-opacity:1;stroke:none;stroke-width:2.60618;stroke-dasharray:none"
             d="m 35.225831,3.4829351 c 0,0 2.943433,-21.7391521 11.076173,-21.7391851 8.13278,-3.4e-5 11.0764,21.7391851 11.0764,21.7391851 z"
             id="path2184"
             sodipodi:nodetypes="cacc" />
          <path
             style="fill:#cccccc;fill-opacity:1;stroke:none;stroke-width:2.60618;stroke-dasharray:none"
             d="m 35.225831,89.121191 c 0,0 2.943433,21.739149 11.076173,21.739179 8.13278,4e-5 11.0764,-21.739179 11.0764,-21.739179 z"
             id="path2186"
             sodipodi:nodetypes="cacc" />
        </a>
      </g>
      <g
         id="g5259"
         transform="matrix(0.87704949,0,0,0.87704949,9.1733899,10.338647)">
        <ellipse
           style="fill:none;stroke:#4d4d4d;stroke-width:19.4224;stroke-opacity:1"
           id="ellipse5221"
           cx="66.769325"
           cy="65.440681"
           rx="36.590923"
           ry="36.590904" />
        <a
           id="a5227"
           transform="translate(20.467208,19.138587)">
          <path
             style="fill:#4d4d4d;fill-opacity:1;stroke:none;stroke-width:2.60618;stroke-dasharray:none"
             d="m 35.225831,3.4829351 c 0,0 2.943433,-21.7391521 11.076173,-21.7391851 8.13278,-3.4e-5 11.0764,21.7391851 11.0764,21.7391851 z"
             id="path5223"
             sodipodi:nodetypes="cacc" />
          <path
             style="fill:#4d4d4d;fill-opacity:1;stroke:none;stroke-width:2.60618;stroke-dasharray:none"
             d="m 35.225831,89.121191 c 0,0 2.943433,21.739149 11.076173,21.739179 8.13278,4e-5 11.0764,-21.739179 11.0764,-21.739179 z"
             id="path5225"
             sodipodi:nodetypes="cacc" />
        </a>
        <a
           id="a5233"
           transform="rotate(30,20.822634,94.063683)">
          <path
             style="fill:#4d4d4d;fill-opacity:1;stroke:none;stroke-width:2.60618;stroke-dasharray:none"
             d="m 35.225831,3.4829351 c 0,0 2.943433,-21.7391521 11.076173,-21.7391851 8.13278,-3.4e-5 11.0764,21.7391851 11.0764,21.7391851 z"
             id="path5229"
             sodipodi:nodetypes="cacc" />
          <path
             style="fill:#4d4d4d;fill-opacity:1;stroke:none;stroke-width:2.60618;stroke-dasharray:none"
             d="m 35.225831,89.121191 c 0,0 2.943433,21.739149 11.076173,21.739179 8.13278,4e-5 11.0764,-21.739179 11.0764,-21.739179 z"
             id="path5231"
             sodipodi:nodetypes="cacc" />
        </a>
        <a
           id="a5239"
           transform="rotate(60,39.961182,73.596461)">
          <path
             style="fill:#4d4d4d;fill-opacity:1;stroke:none;stroke-width:2.60618;stroke-dasharray:none"
             d="m 35.225831,3.4829351 c 0,0 2.943433,-21.7391521 11.076173,-21.7391851 8.13278,-3.4e-5 11.0764,21.7391851 11.0764,21.7391851 z"
             id="path5235"
             sodipodi:nodetypes="cacc" />
          <path
             style="fill:#4d4d4d;fill-opacity:1;stroke:none;stroke-width:2.60618;stroke-dasharray:none"
             d="m 35.225831,89.121191 c 0,0 2.943433,21.739149 11.076173,21.739179 8.13278,4e-5 11.0764,-21.739179 11.0764,-21.739179 z"
             id="path5237"
             sodipodi:nodetypes="cacc" />
        </a>
        <a
           id="a5245"
           transform="rotate(90,46.966374,66.104943)">
          <path
             style="fill:#4d4d4d;fill-opacity:1;stroke:none;stroke-width:2.60618;stroke-dasharray:none"
             d="m 35.225831,3.4829351 c 0,0 2.943433,-21.7391521 11.076173,-21.7391851 8.13278,-3.4e-5 11.0764,21.7391851 11.0764,21.7391851 z"
             id="path5241"
             sodipodi:nodetypes="cacc" />
          <path
             style="fill:#4d4d4d;fill-opacity:1;stroke:none;stroke-width:2.60618;stroke-dasharray:none"
             d="m 35.225831,89.121191 c 0,0 2.943433,21.739149 11.076173,21.739179 8.13278,4e-5 11.0764,-21.739179 11.0764,-21.739179 z"
             id="path5243"
             sodipodi:nodetypes="cacc" />
        </a>
        <a
           id="a5251"
           transform="rotate(120,51.010843,61.779727)">
          <path
             style="fill:#4d4d4d;fill-opacity:1;stroke:none;stroke-width:2.60618;stroke-dasharray:none"
             d="m 35.225831,3.4829351 c 0,0 2.943433,-21.7391521 11.076173,-21.7391851 8.13278,-3.4e-5 11.0764,21.7391851 11.0764,21.7391851 z"
             id="path5247"
             sodipodi:nodetypes="cacc" />
          <path
             style="fill:#4d4d4d;fill-opacity:1;stroke:none;stroke-width:2.60618;stroke-dasharray:none"
             d="m 35.225831,89.121191 c 0,0 2.943433,21.739149 11.076173,21.739179 8.13278,4e-5 11.0764,-21.739179 11.0764,-21.739179 z"
             id="path5249"
             sodipodi:nodetypes="cacc" />
        </a>
        <a
           id="a5257"
           transform="rotate(150,53.971589,58.613431)">
          <path
             style="fill:#4d4d4d;fill-opacity:1;stroke:none;stroke-width:2.60618;stroke-dasharray:none"
             d="m 35.225831,3.4829351 c 0,0 2.943433,-21.7391521 11.076173,-21.7391851 8.13278,-3.4e-5 11.0764,21.7391851 11.0764,21.7391851 z"
             id="path5253"
             sodipodi:nodetypes="cacc" />
          <path
             style="fill:#4d4d4d;fill-opacity:1;stroke:none;stroke-width:2.60618;stroke-dasharray:none"
             d="m 35.225831,89.121191 c 0,0 2.943433,21.739149 11.076173,21.739179 8.13278,4e-5 11.0764,-21.739179 11.0764,-21.739179 z"
             id="path5255"
             sodipodi:nodetypes="cacc" />
        </a>
      </g>
    </g>
  </g>
</svg>
