<?xml version="1.0" encoding="UTF-8" standalone="no"?>
<!-- Created with Inkscape (http://www.inkscape.org/) -->

<svg
   width="512"
   height="512"
   viewBox="0 0 135.46666 135.46667"
   version="1.1"
   id="svg5"
   sodipodi:docname="icon_settings.svg"
   inkscape:version="1.2.2 (b0a8486541, 2022-12-01)"
   inkscape:export-filename="../res/drawable-xxxhdpi/icon_rotate_color_action_large.png"
   inkscape:export-xdpi="36"
   inkscape:export-ydpi="36"
   xmlns:inkscape="http://www.inkscape.org/namespaces/inkscape"
   xmlns:sodipodi="http://sodipodi.sourceforge.net/DTD/sodipodi-0.dtd"
   xmlns="http://www.w3.org/2000/svg"
   xmlns:svg="http://www.w3.org/2000/svg">
  <sodipodi:namedview
     id="namedview7"
     pagecolor="#ffffff"
     bordercolor="#666666"
     borderopacity="1.0"
     inkscape:pageshadow="2"
     inkscape:pageopacity="0.0"
     inkscape:pagecheckerboard="0"
     inkscape:document-units="px"
     showgrid="false"
     units="px"
     width="512px"
     inkscape:zoom="1"
     inkscape:cx="168.5"
     inkscape:cy="234"
     inkscape:window-width="1920"
     inkscape:window-height="1011"
     inkscape:window-x="0"
     inkscape:window-y="0"
     inkscape:window-maximized="1"
     inkscape:current-layer="layer1"
     inkscape:lockguides="false"
     showguides="false"
     inkscape:showpageshadow="2"
     inkscape:deskcolor="#d1d1d1">
    <inkscape:grid
       type="xygrid"
       id="grid2352" />
  </sodipodi:namedview>
  <defs
     id="defs2" />
  <g
     inkscape:label="Layer 1"
     inkscape:groupmode="layer"
     id="layer1">
    <g
       id="g354"
       transform="matrix(0.81967242,0,0,0.81967242,12.214207,12.214207)">
      <g
         id="g1834"
         transform="translate(0.96405296,2.292663)">
        <path
           id="path345"
           style="color:#000000;fill:#ededed;-inkscape-stroke:none"
           d="M 66.769256,0.88233645 C 60.243769,0.88236293 57.787664,15.052489 56.057242,20.401768 55.787737,21.234892 54.175739,21.667767 53.53039,21.084548 49.362317,17.317748 40.143372,6.2676212 34.490101,9.5315108 28.818871,12.80576 33.813007,26.395224 34.993833,31.84889 35.175067,32.685922 34.01453,33.846464 33.1775,33.665223 27.723868,32.484356 14.134403,27.490317 10.860121,33.161491 c -3.263786,5.652979 7.785295,14.871011 11.552407,19.039658 0.5833,0.645474 0.15111,2.257916 -0.68215,2.527483 -5.349244,1.730527 -19.5194074,4.186527 -19.5194315,10.712014 -3.21e-5,6.525284 14.1691645,8.981237 19.5188015,10.712014 0.833345,0.269613 1.266137,1.881941 0.68278,2.527483 -3.767079,4.168645 -14.8161283,13.386679 -11.552407,19.039658 3.274097,5.670969 16.862542,0.677903 22.316748,-0.503101 0.836995,-0.181235 1.99757,0.979338 1.816333,1.816333 -1.181013,5.454177 -6.174011,19.042617 -0.503101,22.316747 5.653271,3.26396 14.872215,-7.7862 19.040289,-11.55304 0.645294,-0.58318 2.257374,-0.15091 2.526852,0.68215 1.730257,5.34889 4.186292,19.52004 10.712014,19.52007 6.52552,3e-5 8.981457,-14.17018 10.712014,-19.51944 0.269554,-0.83321 1.881424,-1.26605 2.526853,-0.68278 4.16816,3.76675 13.387015,14.81699 19.040288,11.55304 5.670909,-3.27413 0.678002,-16.86259 -0.503101,-22.316747 -0.181226,-0.836876 0.979457,-1.997557 1.81633,-1.816333 5.45419,1.181101 19.04265,6.17407 22.31675,0.503101 3.26355,-5.652688 -7.78451,-14.869724 -11.55177,-19.039027 -0.58359,-0.645871 -0.15094,-2.258958 0.68278,-2.528744 5.35001,-1.731232 19.51819,-4.186378 19.51817,-10.711384 -3e-5,-6.525252 -14.16915,-8.981364 -19.51881,-10.712014 -0.83326,-0.269565 -1.26544,-1.882011 -0.68214,-2.527483 3.76734,-4.168884 14.81546,-13.386834 11.55177,-19.039658 -3.27413,-5.670909 -16.86262,-0.678126 -22.31675,0.503101 -0.836742,0.181217 -1.997539,-0.978955 -1.81633,-1.815702 1.181079,-5.453729 6.17428,-19.043156 0.503101,-22.3173792 C 93.395139,6.2676233 84.176255,17.317814 80.008123,21.084548 79.36268,21.667833 77.750831,21.234996 77.48127,20.401768 75.750711,15.052508 73.294776,0.88230917 66.769256,0.88233645 Z m 0,37.67834755 c 14.96026,0 26.879332,11.920349 26.879332,26.880593 0,14.960244 -11.919072,26.879332 -26.879332,26.879331 -14.96026,0 -26.880592,-11.919087 -26.880592,-26.879331 0,-14.960244 11.920332,-26.880593 26.880592,-26.880593 z"
           sodipodi:nodetypes="ssssssssssssssssssssssssssssssssssssssssss" />
        <a
           id="a1783"
           transform="translate(20.467208,19.138587)" />
        <a
           id="a1789"
           transform="rotate(30,20.822634,94.063683)" />
        <a
           id="a1795"
           transform="rotate(60,39.961182,73.596461)" />
        <a
           id="a1801"
           transform="rotate(90,46.966374,66.104943)" />
        <a
           id="a1807"
           transform="rotate(120,51.010843,61.779727)" />
        <a
           id="a1813"
           transform="rotate(150,53.971589,58.613431)" />
      </g>
      <g
         id="g2190"
         transform="matrix(0.93852492,0,0,0.93852492,5.0687211,6.3156546)">
        <path
           id="ellipse2152"
           style="color:#000000;fill:#cccccc;-inkscape-stroke:none"
           d="m 66.769257,0.88230683 c -6.52529,2.648e-5 -8.98102,14.16941317 -10.71169,19.51898217 -0.26959,0.833303 -1.88161,1.2665 -2.52712,0.683168 -4.16816,-3.766668 -13.38674,-14.8166187 -19.04002,-11.5527228 -5.67133,3.2743068 -0.67797,16.8640968 0.50314,22.3174838 0.18119,0.836616 -0.97913,1.996938 -1.81574,1.815735 -5.45336,-1.181145 -19.04314,-6.175085 -22.31748,-0.503811 -3.2638703,5.653114 7.78515,14.872239 11.55205,19.040697 0.58332,0.645502 0.15079,2.257536 -0.6825,2.527116 -5.34957,1.730657 -19.5189603,4.186402 -19.5189803,10.711694 -3e-5,6.525339 14.1693703,8.981842 19.5189803,10.712366 0.83307,0.269489 1.26569,1.881138 0.6825,2.526444 -3.76706,4.168282 -14.8158503,13.386912 -11.55205,19.040025 3.27418,5.671126 16.86294,0.677856 22.31681,-0.503139 0.8369,-0.181226 1.99764,0.979499 1.81641,1.816407 -1.18101,5.453848 -6.17421,19.042598 -0.50314,22.316818 5.65328,3.26396 14.87182,-7.78606 19.04002,-11.55273 0.6455,-0.58332 2.25753,-0.15079 2.52712,0.6825 1.73054,5.34914 4.18615,19.51963 10.71169,19.51965 6.52559,4e-5 8.98199,-14.17046 10.71237,-19.51965 0.26947,-0.83303 1.88116,-1.26566 2.52644,-0.6825 4.16804,3.76684 13.38742,14.81668 19.0407,11.55273 5.670993,-3.27418 0.67792,-16.86283 -0.50314,-22.316818 -0.18123,-0.836882 0.97885,-1.997631 1.815733,-1.816407 5.45386,1.181016 19.04263,6.174265 22.31682,0.503139 3.26361,-5.652804 -7.78413,-14.870367 -11.55138,-19.039353 -0.58344,-0.645658 -0.15098,-2.258116 0.68249,-2.527788 5.35003,-1.731014 19.51834,-4.186651 19.51831,-10.711694 -2e-5,-6.525042 -14.16836,-8.980693 -19.51831,-10.711694 -0.83354,-0.269697 -1.26664,-1.882061 -0.68316,-2.527787 3.76694,-4.168822 14.81582,-13.387053 11.55205,-19.040026 -3.27435,-5.671273 -16.86409,-0.677109 -22.31749,0.503811 -0.836903,0.181229 -1.996963,-0.9795 -1.815733,-1.816406 1.18098,-5.453871 6.174263,-19.042621 0.50314,-22.3168128 -5.65329,-3.2638938 -14.87202,7.7858878 -19.04003,11.5527228 -0.64529,0.583174 -2.25697,0.14988 -2.52644,-0.683168 -1.73051,-5.349621 -4.18703,-19.51900945 -10.71237,-19.51898217 z m 0,37.67834617 c 14.96026,0 26.87933,11.920424 26.87933,26.880668 0,14.960244 -11.91907,26.879326 -26.87933,26.879325 -14.96026,0 -26.88067,-11.919081 -26.88067,-26.879325 0,-14.960244 11.92041,-26.880668 26.88067,-26.880668 z"
           sodipodi:nodetypes="sssssscsssssssssssssssssssssssssssssssssss" />
        <a
           id="a2158"
           transform="translate(20.467208,19.138587)" />
        <a
           id="a2164"
           transform="rotate(30,20.822634,94.063683)" />
        <a
           id="a2170"
           transform="rotate(60,39.961182,73.596461)" />
        <a
           id="a2176"
           transform="rotate(90,46.966374,66.104943)" />
        <a
           id="a2182"
           transform="rotate(120,51.010843,61.779727)" />
        <a
           id="a2188"
           transform="rotate(150,53.971589,58.613431)" />
      </g>
      <g
         id="g5259"
         transform="matrix(0.87704949,0,0,0.87704949,9.1733899,10.338647)">
        <path
           id="ellipse5221"
           style="color:#000000;fill:#4d4d4d;-inkscape-stroke:none"
           d="m 66.769293,0.88227249 c -6.52537,2.647e-5 -8.98158,14.16971051 -10.71205,19.51919551 -0.2695,0.833116 -1.88137,1.266102 -2.5267,0.682892 -4.16806,-3.766803 -13.38718,-14.8169796 -19.04045,-11.5530871 -5.67145,3.2743731 -0.678,16.8652111 0.50318,22.3183321 0.18118,0.83645 -0.9786,1.99624 -1.81505,1.815054 -5.45309,-1.181214 -19.04393,-6.174572 -22.31834,-0.503184 -3.2638601,5.653123 7.78638,14.871134 11.55309,19.039734 0.58348,0.645739 0.15066,2.258431 -0.68289,2.528136 -5.34946,1.730868 -19.5191701,4.186012 -19.5192001,10.711333 -3e-5,6.525085 14.1685501,8.980287 19.5184801,10.711333 0.83353,0.269702 1.26637,1.882423 0.68289,2.528136 -3.76709,4.168895 -14.8160301,13.386847 -11.55237,19.039733 3.27438,5.67145 16.86522,0.67803 22.31834,-0.503183 0.83642,-0.18118 1.99623,0.979348 1.81505,1.815773 -1.18133,5.45356 -6.17435,19.04334 -0.50318,22.31761 5.65327,3.26396 14.87238,-7.78626 19.04045,-11.55308 0.6453,-0.58318 2.25722,-0.15089 2.5267,0.68217 1.73021,5.34871 4.18623,19.51989 10.71205,19.51991 6.52585,4e-5 8.98182,-14.17117 10.71205,-19.51991 0.26947,-0.83302 1.88143,-1.26532 2.5267,-0.68217 4.16804,3.76685 13.38717,14.81704 19.04045,11.55308 5.670937,-3.27415 0.67796,-16.86281 -0.50318,-22.316892 -0.18122,-0.836792 0.97898,-1.997706 1.815767,-1.816491 5.45364,1.181043 19.04337,6.174403 22.31761,0.503183 3.2637,-5.652944 -7.78537,-14.870907 -11.55236,-19.039733 -0.5835,-0.645738 -0.14995,-2.258422 0.68361,-2.528136 5.35007,-1.731113 19.51778,-4.186336 19.51776,-10.711333 -3e-5,-6.525053 -14.16856,-8.98036 -19.51848,-10.711333 -0.83352,-0.269687 -1.26635,-1.88243 -0.68289,-2.528136 3.76699,-4.168848 14.81613,-13.386788 11.55236,-19.039734 -3.27427,-5.671164 -16.86399,-0.677859 -22.31761,0.503184 -0.836817,0.181221 -1.996987,-0.978956 -1.815767,-1.815773 1.181,-5.453648 6.174397,-19.043364 0.50318,-22.3176131 -5.65328,-3.2638904 -14.87242,7.7862561 -19.04045,11.5530871 -0.6453,0.583186 -2.25722,0.150175 -2.5267,-0.682892 C 75.750863,15.05196 73.294693,0.88224521 66.769293,0.88227249 Z m 0,37.67835851 c 14.96026,0 26.87933,11.920522 26.87933,26.880766 0,14.960244 -11.91907,26.879328 -26.87933,26.879327 -14.96026,0 -26.88077,-11.919083 -26.88077,-26.879327 0,-14.960244 11.92051,-26.880766 26.88077,-26.880766 z"
           sodipodi:nodetypes="ssssssssssssssssssssssssssssssssssssssssss" />
        <a
           id="a5227"
           transform="translate(20.467208,19.138587)" />
        <a
           id="a5233"
           transform="rotate(30,20.822634,94.063683)" />
        <a
           id="a5239"
           transform="rotate(60,39.961182,73.596461)" />
        <a
           id="a5245"
           transform="rotate(90,46.966374,66.104943)" />
        <a
           id="a5251"
           transform="rotate(120,51.010843,61.779727)" />
        <a
           id="a5257"
           transform="rotate(150,53.971589,58.613431)" />
      </g>
    </g>
  </g>
</svg>
